<svg width="534" height="534" viewBox="0 0 534 534" fill="none" xmlns="http://www.w3.org/2000/svg">
<path d="M533.333 266.667C533.333 119.391 413.943 0 266.667 0C119.391 0 0 119.391 0 266.667C0 399.768 97.516 510.089 225 530.094V343.75H157.292V266.667H225V207.917C225 141.083 264.811 104.167 325.724 104.167C354.9 104.167 385.417 109.375 385.417 109.375V175H351.791C318.664 175 308.334 195.556 308.334 216.645V266.667H382.292L370.469 343.75H308.333V530.094C435.817 510.089 533.333 399.768 533.333 266.667Z" fill="#1877F2"/>
<path d="M370.47 343.749L382.293 266.666H308.334V216.643C308.334 195.555 318.665 174.999 351.792 174.999H385.418V109.374C385.418 109.374 354.901 104.166 325.725 104.166C264.813 104.166 225.001 141.082 225.001 207.916V266.666H157.293V343.749H225.001V530.093C238.785 532.253 252.716 533.336 266.668 533.333C280.843 533.333 294.758 532.223 308.334 530.093V343.749H370.47Z" fill="white"/>
</svg>
